<mxfile host="app.diagrams.net" modified="2023-05-17T17:05:28.192Z" agent="Mozilla/5.0 (Windows NT 10.0; Win64; x64) AppleWebKit/537.36 (KHTML, like Gecko) Chrome/113.0.0.0 Safari/537.36" etag="ncSXzJUdfYo4APZWo4mM" version="21.3.2" type="device">
  <diagram name="Page-1" id="IXboMNPgwkP2y0W5bTzV">
    <mxGraphModel dx="1313" dy="724" grid="1" gridSize="10" guides="1" tooltips="1" connect="1" arrows="1" fold="1" page="1" pageScale="1" pageWidth="850" pageHeight="1100" math="0" shadow="0">
      <root>
        <mxCell id="0" />
        <mxCell id="1" parent="0" />
        <mxCell id="MwrVRg3NE2t5NkEm4fej-1" value="User" style="rounded=0;whiteSpace=wrap;html=1;" vertex="1" parent="1">
          <mxGeometry x="350" y="340" width="120" height="60" as="geometry" />
        </mxCell>
        <mxCell id="MwrVRg3NE2t5NkEm4fej-15" style="edgeStyle=orthogonalEdgeStyle;rounded=0;orthogonalLoop=1;jettySize=auto;html=1;exitX=0.5;exitY=1;exitDx=0;exitDy=0;" edge="1" parent="1" source="MwrVRg3NE2t5NkEm4fej-2">
          <mxGeometry relative="1" as="geometry">
            <mxPoint x="410" y="350" as="targetPoint" />
          </mxGeometry>
        </mxCell>
        <mxCell id="MwrVRg3NE2t5NkEm4fej-2" value="firstName" style="ellipse;whiteSpace=wrap;html=1;" vertex="1" parent="1">
          <mxGeometry x="370" y="80" width="80" height="40" as="geometry" />
        </mxCell>
        <mxCell id="MwrVRg3NE2t5NkEm4fej-4" style="edgeStyle=orthogonalEdgeStyle;rounded=0;orthogonalLoop=1;jettySize=auto;html=1;exitX=0.5;exitY=1;exitDx=0;exitDy=0;" edge="1" parent="1" source="MwrVRg3NE2t5NkEm4fej-3" target="MwrVRg3NE2t5NkEm4fej-1">
          <mxGeometry relative="1" as="geometry" />
        </mxCell>
        <mxCell id="MwrVRg3NE2t5NkEm4fej-3" value="&lt;u&gt;userId&lt;/u&gt;" style="ellipse;whiteSpace=wrap;html=1;" vertex="1" parent="1">
          <mxGeometry x="270" y="120" width="80" height="40" as="geometry" />
        </mxCell>
        <mxCell id="MwrVRg3NE2t5NkEm4fej-16" style="edgeStyle=orthogonalEdgeStyle;rounded=0;orthogonalLoop=1;jettySize=auto;html=1;exitX=0;exitY=1;exitDx=0;exitDy=0;entryX=0.64;entryY=-0.01;entryDx=0;entryDy=0;entryPerimeter=0;" edge="1" parent="1" source="MwrVRg3NE2t5NkEm4fej-5" target="MwrVRg3NE2t5NkEm4fej-1">
          <mxGeometry relative="1" as="geometry" />
        </mxCell>
        <mxCell id="MwrVRg3NE2t5NkEm4fej-5" value="lastName" style="ellipse;whiteSpace=wrap;html=1;" vertex="1" parent="1">
          <mxGeometry x="480" y="120" width="80" height="40" as="geometry" />
        </mxCell>
        <mxCell id="MwrVRg3NE2t5NkEm4fej-17" style="edgeStyle=orthogonalEdgeStyle;rounded=0;orthogonalLoop=1;jettySize=auto;html=1;exitX=0;exitY=1;exitDx=0;exitDy=0;entryX=0.5;entryY=0;entryDx=0;entryDy=0;" edge="1" parent="1" source="MwrVRg3NE2t5NkEm4fej-6" target="MwrVRg3NE2t5NkEm4fej-1">
          <mxGeometry relative="1" as="geometry" />
        </mxCell>
        <mxCell id="MwrVRg3NE2t5NkEm4fej-6" value="email" style="ellipse;whiteSpace=wrap;html=1;" vertex="1" parent="1">
          <mxGeometry x="510" y="180" width="80" height="40" as="geometry" />
        </mxCell>
        <mxCell id="MwrVRg3NE2t5NkEm4fej-18" style="edgeStyle=orthogonalEdgeStyle;rounded=0;orthogonalLoop=1;jettySize=auto;html=1;exitX=0;exitY=0.5;exitDx=0;exitDy=0;" edge="1" parent="1" source="MwrVRg3NE2t5NkEm4fej-7">
          <mxGeometry relative="1" as="geometry">
            <mxPoint x="410" y="340" as="targetPoint" />
          </mxGeometry>
        </mxCell>
        <mxCell id="MwrVRg3NE2t5NkEm4fej-7" value="phoneNumber" style="ellipse;whiteSpace=wrap;html=1;" vertex="1" parent="1">
          <mxGeometry x="530" y="250" width="90" height="50" as="geometry" />
        </mxCell>
        <mxCell id="MwrVRg3NE2t5NkEm4fej-14" style="edgeStyle=orthogonalEdgeStyle;rounded=0;orthogonalLoop=1;jettySize=auto;html=1;exitX=1;exitY=0.5;exitDx=0;exitDy=0;entryX=0.5;entryY=0;entryDx=0;entryDy=0;" edge="1" parent="1" source="MwrVRg3NE2t5NkEm4fej-8" target="MwrVRg3NE2t5NkEm4fej-1">
          <mxGeometry relative="1" as="geometry" />
        </mxCell>
        <mxCell id="MwrVRg3NE2t5NkEm4fej-8" value="password" style="ellipse;whiteSpace=wrap;html=1;" vertex="1" parent="1">
          <mxGeometry x="120" y="310" width="80" height="40" as="geometry" />
        </mxCell>
        <mxCell id="MwrVRg3NE2t5NkEm4fej-13" style="edgeStyle=orthogonalEdgeStyle;rounded=0;orthogonalLoop=1;jettySize=auto;html=1;exitX=1;exitY=0.5;exitDx=0;exitDy=0;" edge="1" parent="1" source="MwrVRg3NE2t5NkEm4fej-9">
          <mxGeometry relative="1" as="geometry">
            <mxPoint x="410" y="340" as="targetPoint" />
          </mxGeometry>
        </mxCell>
        <mxCell id="MwrVRg3NE2t5NkEm4fej-9" value="enable" style="ellipse;whiteSpace=wrap;html=1;" vertex="1" parent="1">
          <mxGeometry x="140" y="255" width="80" height="40" as="geometry" />
        </mxCell>
        <mxCell id="MwrVRg3NE2t5NkEm4fej-12" style="edgeStyle=orthogonalEdgeStyle;rounded=0;orthogonalLoop=1;jettySize=auto;html=1;exitX=1;exitY=0.5;exitDx=0;exitDy=0;entryX=0.5;entryY=0;entryDx=0;entryDy=0;" edge="1" parent="1" source="MwrVRg3NE2t5NkEm4fej-10" target="MwrVRg3NE2t5NkEm4fej-1">
          <mxGeometry relative="1" as="geometry" />
        </mxCell>
        <mxCell id="MwrVRg3NE2t5NkEm4fej-10" value="about" style="ellipse;whiteSpace=wrap;html=1;" vertex="1" parent="1">
          <mxGeometry x="190" y="180" width="80" height="40" as="geometry" />
        </mxCell>
        <mxCell id="MwrVRg3NE2t5NkEm4fej-20" value="Role" style="rounded=0;whiteSpace=wrap;html=1;" vertex="1" parent="1">
          <mxGeometry x="900" y="370" width="120" height="60" as="geometry" />
        </mxCell>
        <mxCell id="MwrVRg3NE2t5NkEm4fej-24" style="edgeStyle=orthogonalEdgeStyle;rounded=0;orthogonalLoop=1;jettySize=auto;html=1;exitX=0.5;exitY=1;exitDx=0;exitDy=0;" edge="1" parent="1" source="MwrVRg3NE2t5NkEm4fej-21" target="MwrVRg3NE2t5NkEm4fej-20">
          <mxGeometry relative="1" as="geometry" />
        </mxCell>
        <mxCell id="MwrVRg3NE2t5NkEm4fej-21" value="roleName" style="ellipse;whiteSpace=wrap;html=1;" vertex="1" parent="1">
          <mxGeometry x="1000" y="250" width="90" height="50" as="geometry" />
        </mxCell>
        <mxCell id="MwrVRg3NE2t5NkEm4fej-25" style="edgeStyle=orthogonalEdgeStyle;rounded=0;orthogonalLoop=1;jettySize=auto;html=1;exitX=0.5;exitY=1;exitDx=0;exitDy=0;" edge="1" parent="1" source="MwrVRg3NE2t5NkEm4fej-22">
          <mxGeometry relative="1" as="geometry">
            <mxPoint x="960" y="370" as="targetPoint" />
          </mxGeometry>
        </mxCell>
        <mxCell id="MwrVRg3NE2t5NkEm4fej-22" value="&lt;u&gt;roleId&lt;/u&gt;" style="ellipse;whiteSpace=wrap;html=1;" vertex="1" parent="1">
          <mxGeometry x="830" y="250" width="90" height="50" as="geometry" />
        </mxCell>
        <mxCell id="MwrVRg3NE2t5NkEm4fej-26" value="user_role" style="rounded=0;whiteSpace=wrap;html=1;" vertex="1" parent="1">
          <mxGeometry x="620" y="730" width="120" height="60" as="geometry" />
        </mxCell>
        <mxCell id="MwrVRg3NE2t5NkEm4fej-28" style="edgeStyle=orthogonalEdgeStyle;rounded=0;orthogonalLoop=1;jettySize=auto;html=1;exitX=0.5;exitY=1;exitDx=0;exitDy=0;entryX=0.5;entryY=0;entryDx=0;entryDy=0;" edge="1" parent="1" source="MwrVRg3NE2t5NkEm4fej-27" target="MwrVRg3NE2t5NkEm4fej-26">
          <mxGeometry relative="1" as="geometry" />
        </mxCell>
        <mxCell id="MwrVRg3NE2t5NkEm4fej-27" value="&lt;u&gt;userRoleId&lt;/u&gt;" style="ellipse;whiteSpace=wrap;html=1;" vertex="1" parent="1">
          <mxGeometry x="500" y="590" width="90" height="50" as="geometry" />
        </mxCell>
        <mxCell id="MwrVRg3NE2t5NkEm4fej-31" style="edgeStyle=orthogonalEdgeStyle;rounded=0;orthogonalLoop=1;jettySize=auto;html=1;exitX=0.5;exitY=1;exitDx=0;exitDy=0;" edge="1" parent="1" source="MwrVRg3NE2t5NkEm4fej-29">
          <mxGeometry relative="1" as="geometry">
            <mxPoint x="680" y="730" as="targetPoint" />
          </mxGeometry>
        </mxCell>
        <mxCell id="MwrVRg3NE2t5NkEm4fej-29" value="userId" style="ellipse;whiteSpace=wrap;html=1;" vertex="1" parent="1">
          <mxGeometry x="635" y="550" width="90" height="50" as="geometry" />
        </mxCell>
        <mxCell id="MwrVRg3NE2t5NkEm4fej-32" style="edgeStyle=orthogonalEdgeStyle;rounded=0;orthogonalLoop=1;jettySize=auto;html=1;exitX=0.5;exitY=1;exitDx=0;exitDy=0;" edge="1" parent="1" source="MwrVRg3NE2t5NkEm4fej-30">
          <mxGeometry relative="1" as="geometry">
            <mxPoint x="680" y="730" as="targetPoint" />
          </mxGeometry>
        </mxCell>
        <mxCell id="MwrVRg3NE2t5NkEm4fej-30" value="roleId" style="ellipse;whiteSpace=wrap;html=1;" vertex="1" parent="1">
          <mxGeometry x="750" y="590" width="90" height="50" as="geometry" />
        </mxCell>
      </root>
    </mxGraphModel>
  </diagram>
</mxfile>
